<?xml version="1.0" encoding="UTF-8"?>
<svg xmlns="http://www.w3.org/2000/svg" xmlns:xlink="http://www.w3.org/1999/xlink" viewBox="0 0 267.92 290.82">
  <defs>
    <style>
      .cls-1, .cls-2 {
        fill: #ffbd40;
      }

      .cls-3 {
        fill: url(#linear-gradient-2);
      }

      .cls-4 {
        fill: url(#linear-gradient-25);
      }

      .cls-5 {
        fill: url(#linear-gradient-13);
      }

      .cls-5, .cls-6, .cls-7, .cls-2, .cls-8, .cls-9, .cls-10, .cls-11, .cls-12, .cls-13, .cls-14, .cls-15, .cls-16, .cls-17, .cls-18, .cls-19, .cls-20 {
        mix-blend-mode: multiply;
      }

      .cls-5, .cls-7, .cls-8, .cls-13 {
        opacity: .62;
      }

      .cls-21 {
        fill: #ff9527;
      }

      .cls-22 {
        fill: url(#linear-gradient-10);
      }

      .cls-23 {
        fill: url(#linear-gradient-12);
      }

      .cls-24, .cls-19 {
        fill: #e48a23;
      }

      .cls-25 {
        fill: #6a2905;
      }

      .cls-26 {
        fill: #476825;
      }

      .cls-6 {
        fill: url(#linear-gradient-6);
      }

      .cls-6, .cls-10 {
        opacity: .48;
      }

      .cls-7 {
        fill: url(#linear-gradient-11);
      }

      .cls-2 {
        opacity: .4;
      }

      .cls-27, .cls-17 {
        fill: #ffa427;
      }

      .cls-28, .cls-9 {
        fill: #755e49;
      }

      .cls-8 {
        fill: url(#linear-gradient-15);
      }

      .cls-29 {
        fill: #ff9b73;
      }

      .cls-9, .cls-17, .cls-30, .cls-19, .cls-20 {
        opacity: .5;
      }

      .cls-31 {
        fill: url(#linear-gradient-22);
      }

      .cls-32 {
        fill: url(#linear-gradient-24);
      }

      .cls-33 {
        isolation: isolate;
      }

      .cls-10 {
        fill: url(#linear-gradient);
      }

      .cls-11 {
        fill: url(#linear-gradient-8);
      }

      .cls-12 {
        fill: url(#linear-gradient-9);
        opacity: .71;
      }

      .cls-34 {
        fill: url(#linear-gradient-14);
      }

      .cls-35 {
        fill: url(#linear-gradient-20);
      }

      .cls-14 {
        fill: url(#linear-gradient-5);
      }

      .cls-36 {
        fill: url(#linear-gradient-17);
      }

      .cls-37 {
        fill: url(#linear-gradient-7);
      }

      .cls-38 {
        fill: #e47c23;
      }

      .cls-16 {
        fill: url(#linear-gradient-3);
      }

      .cls-39 {
        fill: url(#linear-gradient-19);
      }

      .cls-40 {
        fill: url(#linear-gradient-21);
      }

      .cls-41 {
        fill: url(#linear-gradient-16);
      }

      .cls-42 {
        fill: url(#linear-gradient-23);
      }

      .cls-18 {
        fill: url(#linear-gradient-4);
        opacity: .39;
      }

      .cls-43 {
        fill: url(#linear-gradient-18);
      }
    </style>
    <linearGradient id="linear-gradient" x1="143.26" y1="91.38" x2="195.03" y2="91.38" gradientUnits="userSpaceOnUse">
      <stop offset="0" stop-color="#53721a"/>
      <stop offset=".16" stop-color="#597518"/>
      <stop offset=".4" stop-color="#6d7f16"/>
      <stop offset=".53" stop-color="#7b8714"/>
      <stop offset="1" stop-color="#0d3a17"/>
    </linearGradient>
    <linearGradient id="linear-gradient-2" x1="121.45" y1="99.62" x2="155.17" y2="99.62" gradientUnits="userSpaceOnUse">
      <stop offset="0" stop-color="#3f6619"/>
      <stop offset="1" stop-color="#66952e"/>
    </linearGradient>
    <linearGradient id="linear-gradient-3" x1="-71.45" y1="127.21" x2="86.09" y2="127.21" gradientTransform="translate(79.56 25.43) rotate(7.7)" xlink:href="#linear-gradient-2"/>
    <linearGradient id="linear-gradient-4" x1="-2.59" y1="163.84" x2="19.7" y2="80.65" gradientTransform="translate(79.56 25.43) rotate(7.7)" xlink:href="#linear-gradient"/>
    <linearGradient id="linear-gradient-5" x1="44.76" y1="114.3" x2="151.97" y2="114.3" xlink:href="#linear-gradient-2"/>
    <linearGradient id="linear-gradient-6" x1="44.76" y1="108.21" x2="151.24" y2="108.21" xlink:href="#linear-gradient"/>
    <linearGradient id="linear-gradient-7" x1="116.34" y1="135.76" x2="178.29" y2="135.76" gradientTransform="translate(-30.72 -.3) rotate(-3.28)" xlink:href="#linear-gradient-2"/>
    <linearGradient id="linear-gradient-8" x1="264.34" y1="-15.91" x2="448.56" y2="-15.91" gradientTransform="translate(-53.48 209.62) rotate(-7.96) scale(.74 .77)" xlink:href="#linear-gradient-2"/>
    <linearGradient id="linear-gradient-9" x1="313.79" y1="-53.56" x2="448.56" y2="-53.56" gradientTransform="translate(-53.48 209.62) rotate(-7.96) scale(.74 .77)" xlink:href="#linear-gradient"/>
    <linearGradient id="linear-gradient-10" x1="18.6" y1="186.04" x2="167.72" y2="186.04" xlink:href="#linear-gradient-2"/>
    <linearGradient id="linear-gradient-11" x1="18.6" y1="176.8" x2="144.48" y2="176.8" xlink:href="#linear-gradient"/>
    <linearGradient id="linear-gradient-12" x1="-452.36" y1="186.04" x2="-303.24" y2="186.04" gradientTransform="translate(-184.44) rotate(-180) scale(1 -1)" xlink:href="#linear-gradient-2"/>
    <linearGradient id="linear-gradient-13" x1="-452.36" y1="176.8" x2="-326.48" y2="176.8" gradientTransform="translate(-184.44) rotate(-180) scale(1 -1)" xlink:href="#linear-gradient"/>
    <linearGradient id="linear-gradient-14" x1="184.9" y1="217.72" x2="223.3" y2="217.72" gradientTransform="translate(-79.11 -57.89) rotate(-3.29)" xlink:href="#linear-gradient"/>
    <linearGradient id="linear-gradient-15" x1="126.96" y1="145.87" x2="177.9" y2="145.87" xlink:href="#linear-gradient"/>
    <linearGradient id="linear-gradient-16" x1="165.52" y1="65.75" x2="201.8" y2="207.7" gradientTransform="translate(-94.03 10.87) rotate(-9.71)" xlink:href="#linear-gradient-2"/>
    <linearGradient id="linear-gradient-17" x1="170.7" y1="64.43" x2="206.97" y2="206.38" gradientTransform="translate(-94.03 10.87) rotate(-9.71)" xlink:href="#linear-gradient-2"/>
    <linearGradient id="linear-gradient-18" x1="204.08" y1="65.59" x2="209.23" y2="225.72" gradientTransform="translate(-94.03 10.87) rotate(-9.71)" xlink:href="#linear-gradient-2"/>
    <linearGradient id="linear-gradient-19" x1="154.87" y1="68.47" x2="191.15" y2="210.42" gradientTransform="translate(-94.03 10.87) rotate(-9.71)" xlink:href="#linear-gradient-2"/>
    <linearGradient id="linear-gradient-20" x1="-30.42" y1="28.01" x2="5.86" y2="169.96" gradientTransform="translate(248.93 37.56) rotate(-150.7) scale(1 -1)" xlink:href="#linear-gradient-2"/>
    <linearGradient id="linear-gradient-21" x1="-25.24" y1="26.69" x2="11.03" y2="168.63" gradientTransform="translate(248.93 37.56) rotate(-150.7) scale(1 -1)" xlink:href="#linear-gradient-2"/>
    <linearGradient id="linear-gradient-22" x1="8.14" y1="27.85" x2="13.29" y2="187.98" gradientTransform="translate(248.93 37.56) rotate(-150.7) scale(1 -1)" xlink:href="#linear-gradient-2"/>
    <linearGradient id="linear-gradient-23" x1="-41.06" y1="30.73" x2="-4.79" y2="172.68" gradientTransform="translate(248.93 37.56) rotate(-150.7) scale(1 -1)" xlink:href="#linear-gradient-2"/>
    <linearGradient id="linear-gradient-24" x1="141.42" y1="143.12" x2="214.58" y2="138.92" xlink:href="#linear-gradient-2"/>
    <linearGradient id="linear-gradient-25" x1="177.53" y1="121.97" x2="236.74" y2="118.57" gradientTransform="translate(370.75 82.93) rotate(-160) scale(1 -1)" xlink:href="#linear-gradient-2"/>
  </defs>
  <g class="cls-33">
    <g id="Layer_2" data-name="Layer 2">
      <g id="Layer_1-2" data-name="Layer 1">
        <g>
          <g>
            <path class="cls-28" d="M183.84,214.13c-48.11-12.57-85.16.3-85.16.3-8.78,3.68-5.2,11.66-5.2,11.66l19.54,59.86c-.1.16-.16.31-.16.47,0,2.43,12.6,4.4,28.13,4.4s28.13-1.97,28.13-4.4c0-.13-.04-.25-.11-.38.77-.89.84-1.68.84-1.68l18.85-57.66c4.88-11.04-4.87-12.58-4.87-12.58Z"/>
            <path class="cls-29" d="M182.95,220.35c0,6.1-18.59,9.5-44.26,9.5s-46.08-3.77-46.08-9.87,20.81-11.05,46.48-11.05,43.86,5.32,43.86,11.42Z"/>
            <path class="cls-25" d="M188.07,220.05c0,4.62-20.81,8.38-46.48,8.38s-46.48-3.75-46.48-8.38,20.81-8.38,46.48-8.38,46.48,3.75,46.48,8.38Z"/>
            <path class="cls-9" d="M101.22,237.36s42.31,18.26,83.25,2.32l1.21-3.71c-4.75,2.21-31.63,12.95-84.46,1.39Z"/>
            <g class="cls-20">
              <path class="cls-28" d="M126.98,263.43s-.13-.22-.35-.62c-.24-.38-.56-.99-1.07-1.63-.97-1.33-2.44-3.07-4.3-4.75-1.85-1.7-3.71-3.03-5.09-3.95-1.39-.91-2.3-1.43-2.3-1.43,0,0,.59.84,1.66,2.08,1.07,1.24,2.6,2.89,4.43,4.57,1.84,1.67,3.61,3.07,4.91,4.08.67.49,1.15.93,1.53,1.21.37.28.58.44.58.44Z"/>
              <path class="cls-28" d="M121.36,268.74s-.41-.73-1.14-1.81c-.79-1.04-1.71-2.55-2.94-4.04-1.06-1.59-2.29-2.9-2.99-3.97-.78-1.04-1.35-1.67-1.35-1.67,0,0,.14.79.51,2.06.3,1.3,1.17,2.92,2.3,4.61,1.3,1.57,2.64,2.87,3.78,3.61,1.1.79,1.83,1.21,1.83,1.21Z"/>
            </g>
          </g>
          <g>
            <g>
              <path class="cls-26" d="M150.05,179.03c-1.27-.73-8.58-33.25-7.87-35.11,12.63-33.3,15.58-112.42,55.88-143.92-26.42,56.78-16.9,139.73-23.52,162-1.74,5.85-5.01,11.59-10.28,14.66-3.72,2.17-10.48,4.5-14.2,2.37Z"/>
              <path class="cls-10" d="M153.75,178.74c-1.18,0-2.16-.2-2.94-.59-1.56-3.01-7.9-31.42-7.54-33.95,3.66-9.62,9.83-19.17,12.27-34.7,5.83-37.23,14.05-82.37,39.5-105.48-7,16.52-11.63,34.77-14.72,53.01-3.95,23.3-5.37,46.54-5.98,66.02-.54,17.38,1.25,31.44-.88,38.63-1.37,4.59-4.17,10.75-9.77,14.01-2.61,1.52-6.7,3.06-9.94,3.06Z"/>
              <g>
                <path class="cls-26" d="M148.48,148.87c-.26.37-.31,1.58-2.17,1.27.34.47,1.04,1.07,1.5,1.33.43.26.9.43,1.4.38.46-.03.37-2.12.07-2.88-.14-.37-.59-.43-.81-.1ZM149.74,141.79c.28.75.3,2.85-.14,2.88-.5.03-.95-.16-1.37-.42-.45-.29-1.12-.89-1.44-1.37,1.82.37,1.89-.85,2.16-1.22.22-.32.66-.25.79.13ZM150.32,134.6c.26.76.25,2.85-.19,2.87-.5.03-.94-.17-1.34-.45-.44-.29-1.09-.9-1.39-1.38,1.79.39,1.88-.82,2.15-1.19.22-.32.65-.24.78.14ZM151.02,127.41c.23.76.19,2.86-.24,2.88-.49.02-.92-.19-1.32-.47-.42-.29-1.06-.92-1.35-1.4,1.75.41,1.87-.8,2.14-1.15.23-.32.65-.24.77.14ZM151.82,120.24c.23.77.15,2.87-.28,2.88-.48.02-.9-.2-1.28-.48-.41-.3-1.02-.93-1.31-1.42,1.72.45,1.85-.78,2.12-1.13.23-.31.64-.21.75.16ZM152.73,113.08c.2.78.11,2.86-.32,2.87-.47,0-.89-.21-1.25-.5-.4-.31-.99-.95-1.27-1.44,1.68.46,1.83-.75,2.11-1.1.24-.31.64-.21.73.17ZM153.77,105.94c.18.78.03,2.87-.38,2.87-.46,0-.86-.23-1.23-.51-.39-.32-.97-.97-1.22-1.47,1.64.49,1.82-.72,2.1-1.07.24-.3.64-.2.73.17ZM154.92,98.82c.17.78-.02,2.86-.43,2.85-.46,0-.85-.23-1.2-.53-.38-.32-.92-.98-1.16-1.48,1.61.52,1.8-.69,2.09-1.04.23-.3.62-.19.71.19ZM156.18,91.72c.16.79-.07,2.87-.48,2.85-.45,0-.83-.25-1.17-.55-.36-.32-.89-.98-1.11-1.49,1.57.54,1.79-.67,2.06-1,.24-.3.62-.18.7.19ZM157.58,84.64c.13.79-.12,2.86-.53,2.84-.44-.02-.82-.26-1.14-.57-.35-.33-.85-1.01-1.07-1.51,1.54.57,1.77-.63,2.05-.97.25-.29.62-.18.68.21ZM159.12,77.6c.12.79-.19,2.86-.58,2.83-.44-.02-.79-.27-1.11-.58-.34-.33-.82-1.02-1.01-1.52,1.5.58,1.75-.61,2.04-.94.25-.3.61-.17.66.21ZM160.81,70.6c.09.79-.25,2.84-.64,2.81-.43-.03-.77-.29-1.07-.6-.33-.34-.78-1.04-.97-1.54,1.46.61,1.74-.57,2.04-.9.25-.29.6-.15.64.23ZM162.69,63.63c.04.78-.33,2.84-.71,2.8-.42-.04-.75-.3-1.04-.62-.31-.35-.74-1.04-.9-1.56,1.41.64,1.72-.55,2.03-.86.26-.27.6-.13.63.24ZM164.75,56.73c0,.78-.44,2.81-.8,2.77-.41-.05-.73-.32-1-.64-.29-.36-.7-1.07-.84-1.58,1.37.67,1.73-.5,2.04-.81.26-.27.59-.12.61.26ZM167,49.9c-.01.78-.55,2.79-.9,2.75-.4-.07-.7-.35-.96-.67-.29-.36-.65-1.08-.76-1.6,1.31.71,1.72-.45,2.02-.75.27-.26.59-.1.59.27ZM169.5,43.14c-.03.79-.67,2.77-1.01,2.7-.39-.07-.68-.36-.92-.69-.25-.37-.57-1.08-.66-1.61,1.27.74,1.71-.4,2.03-.68.27-.26.58-.09.57.28ZM172.24,36.5c-.06.78-.77,2.73-1.11,2.66-.38-.09-.65-.38-.86-.73-.23-.36-.52-1.1-.58-1.63,1.21.78,1.69-.34,2.02-.62.27-.25.57-.07.54.31ZM175.27,29.98c-.1.78-.89,2.7-1.23,2.61-.36-.1-.62-.4-.81-.76-.21-.37-.45-1.11-.49-1.64,1.15.83,1.68-.27,2.01-.54.28-.23.57-.05.52.33ZM178.63,23.64c-.14.78-1.02,2.65-1.34,2.55-.36-.12-.59-.43-.76-.79-.19-.39-.38-1.13-.39-1.66,1.08.87,1.66-.21,2-.45.29-.22.56-.02.49.35ZM182.38,17.53c-.23.73-1.17,2.58-1.49,2.45-.35-.14-.55-.45-.69-.82-.15-.4-.29-1.16-.27-1.68,1.01.94,1.62-.12,2.01-.33.32-.2.56.02.45.38ZM186.59,11.74c-.31.69-1.45,2.41-1.71,2.3-.33-.15-.5-.49-.61-.86-.12-.41-.21-1.17-.12-1.68.9.99,1.66.04,2.04-.16.32-.17.54.05.41.4ZM191.28,6.36c-.34.7-1.66,2.27-1.94,2.1-.31-.18-.44-.51-.5-.88-.07-.4-.05-1.14.08-1.65.78,1.05,1.61.16,2,0,.33-.14.52.11.35.44ZM196.48,1.49c-.41.66-1.86,2.11-2.11,1.93-.28-.22-.37-.56-.4-.93-.02-.41.08-1.15.27-1.63.64,1.11,1.54.3,1.94.17.34-.11.49.15.3.47Z"/>
                <path class="cls-26" d="M196.33,3.17c.07-.39-.1-.37-.33,0-.48.79-1.46,3.1-1.27,3.22.2.12.47,0,.75-.23.3-.24.81-.8,1.11-1.27-.84.09-.35-1.27-.26-1.72ZM194.15,12.63c-.33.47-.93,1.02-1.29,1.25-.33.21-.66.34-.93.19-.24-.13.62-2.49,1.1-3.27.22-.39.47-.39.46.02-.02.47-.45,1.85.67,1.82ZM191.88,20.42c-.36.48-1.01,1.02-1.41,1.24-.37.21-.74.34-1.07.18-.29-.12.5-2.52.97-3.31.22-.39.52-.37.55.03.02.48-.35,1.88.96,1.86ZM189.77,28.26c-.38.47-1.07,1.01-1.49,1.25-.39.21-.79.33-1.15.18-.33-.14.4-2.54.85-3.35.23-.39.56-.38.62.04.07.48-.28,1.89,1.17,1.88ZM187.79,36.14c-.4.47-1.09,1.03-1.52,1.26-.4.22-.81.34-1.2.2-.36-.13.3-2.56.75-3.38.22-.4.58-.38.66.03.09.48-.22,1.91,1.31,1.89ZM185.98,44.04c-.38.48-1.08,1.05-1.51,1.3-.41.22-.83.36-1.22.22-.36-.13.2-2.58.64-3.4.21-.41.59-.4.67.02.1.48-.16,1.91,1.41,1.85ZM184.39,51.99c-.38.5-1.07,1.08-1.51,1.32-.41.23-.83.38-1.24.26-.38-.12.14-2.57.55-3.42.2-.41.58-.41.69,0,.13.48-.09,1.92,1.51,1.83ZM182.98,59.99c-.37.49-1.06,1.1-1.51,1.35-.41.24-.84.4-1.26.28-.38-.1.09-2.58.47-3.43.2-.42.58-.42.71,0,.15.49-.03,1.92,1.59,1.8ZM181.78,68c-.37.51-1.06,1.12-1.5,1.39-.41.26-.84.42-1.27.31-.39-.1.01-2.58.39-3.43.18-.42.58-.44.72-.04.16.49.02,1.92,1.66,1.76ZM180.77,76.05c-.35.52-1.04,1.14-1.48,1.43-.41.26-.84.44-1.28.33-.4-.09-.05-2.58.3-3.44.17-.43.57-.46.72-.05.18.48.07,1.92,1.73,1.72ZM179.97,84.12c-.35.53-1.02,1.17-1.46,1.47-.41.27-.83.46-1.28.38-.4-.08-.13-2.57.21-3.46.16-.43.56-.46.73-.06.19.47.11,1.92,1.79,1.67ZM179.39,92.2c-.33.54-.99,1.2-1.42,1.51-.4.28-.82.49-1.27.41-.41-.06-.21-2.57.11-3.46.16-.44.55-.49.73-.09.21.47.17,1.92,1.85,1.63ZM179.06,100.29c-.32.54-.97,1.24-1.39,1.56-.39.29-.81.51-1.27.45-.41-.06-.28-2.57,0-3.47.14-.43.54-.49.74-.09.22.45.23,1.9,1.91,1.56ZM178.96,108.38c-.3.56-.92,1.27-1.33,1.6-.38.3-.8.53-1.25.49-.41-.04-.37-2.55-.1-3.46.13-.45.52-.52.73-.13.23.45.29,1.9,1.96,1.5ZM179.13,116.48c-.28.57-.87,1.29-1.27,1.64-.37.32-.78.57-1.23.54-.41-.03-.45-2.54-.23-3.46.11-.45.51-.53.73-.15.25.45.35,1.88,2,1.43ZM179.6,124.56c-.26.58-.81,1.32-1.2,1.69-.35.33-.75.59-1.2.58-.41-.02-.54-2.53-.36-3.45.09-.46.48-.55.72-.18.26.44.42,1.87,2.03,1.36ZM180.38,132.61c-.23.58-.75,1.36-1.11,1.73-.33.34-.71.62-1.16.63-.4,0-.65-2.5-.5-3.43.07-.45.45-.57.7-.21.28.42.5,1.86,2.07,1.28ZM181.51,140.6c-.2.59-.67,1.39-1.01,1.78-.31.36-.66.66-1.1.68-.39.02-.76-2.47-.66-3.41.05-.45.42-.59.68-.24.29.42.58,1.83,2.09,1.19ZM183.01,148.53c-.16.61-.58,1.42-.89,1.83-.29.38-.61.69-1.04.73-.38.05-.87-2.43-.82-3.37.02-.45.38-.61.64-.27.31.4.66,1.8,2.1,1.09ZM184.93,156.37c-.12.61-.48,1.44-.75,1.86-.25.4-.54.72-.95.78-.36.07-1-2.38-1-3.32,0-.45.33-.62.61-.3.33.38.75,1.76,2.1.98Z"/>
              </g>
            </g>
            <g>
              <path class="cls-26" d="M144.06,189.59c1.35-.57,12.7-31.9,12.23-33.84-8.35-34.63-1.32-113.49-37.33-149.8,19.07,59.65-.8,140.75,2.96,163.67.99,6.02,3.51,12.13,8.36,15.84,3.42,2.62,9.83,5.78,13.79,4.14Z"/>
              <path class="cls-3" d="M140.44,188.85c1.17.15,2.17.07,2.99-.22,1.93-2.79,11.79-30.18,11.75-32.73-2.42-10.01-7.34-20.25-7.8-35.97-1.1-37.67-3.58-83.49-25.92-109.61,4.86,17.27,7.17,35.96,7.94,54.44.99,23.61-.52,46.85-2.37,66.24-1.65,17.32-5.19,31.04-3.98,38.43.78,4.73,2.78,11.19,7.93,15.13,2.4,1.84,6.26,3.88,9.48,4.29Z"/>
              <g>
                <path class="cls-26" d="M148.6,159.87c-.39.72-.74,2.78-.29,2.86.5.11.98,0,1.44-.21.49-.2,1.26-.71,1.65-1.13-1.88.08-1.78-1.12-1.99-1.53-.18-.35-.63-.35-.81,0ZM149.86,152.66c.22.4.14,1.61,1.99,1.48-.38.43-1.11.95-1.6,1.18-.45.21-.92.34-1.41.25-.44-.09-.15-2.16.22-2.88.18-.36.63-.37.81-.03ZM150.17,145.44c.22.4.16,1.62,1.98,1.45-.37.44-1.08.97-1.56,1.2-.43.23-.9.37-1.39.27-.44-.08-.19-2.15.17-2.88.18-.37.61-.39.79-.05ZM150.37,138.22c.22.39.19,1.6,1.98,1.41-.35.45-1.06.98-1.52,1.22-.43.23-.88.38-1.37.3-.43-.08-.2-2.16.12-2.89.17-.36.59-.39.78-.05ZM150.47,130.99c.22.39.2,1.62,1.96,1.39-.34.45-1.03,1-1.48,1.25-.41.23-.86.39-1.33.31-.43-.06-.24-2.15.08-2.89.16-.35.57-.4.77-.06ZM150.45,123.76c.23.39.23,1.61,1.96,1.36-.34.45-1,1.01-1.44,1.27-.4.24-.84.4-1.31.34-.43-.06-.26-2.14.04-2.89.14-.36.55-.41.75-.07ZM150.31,116.54c.23.38.26,1.6,1.95,1.32-.31.46-.96,1.03-1.39,1.3-.4.23-.82.41-1.28.35-.41-.05-.3-2.14-.02-2.9.14-.36.54-.41.75-.08ZM150.05,109.31c.24.38.28,1.6,1.94,1.29-.3.47-.92,1.06-1.34,1.33-.38.25-.8.43-1.26.37-.41-.04-.34-2.14-.07-2.89.13-.37.54-.43.73-.1ZM149.68,102.11c.23.36.3,1.59,1.92,1.25-.29.47-.89,1.07-1.29,1.34-.38.26-.78.45-1.23.4-.41-.04-.37-2.13-.12-2.89.12-.36.51-.43.72-.1ZM149.17,94.89c.23.37.32,1.59,1.91,1.22-.28.48-.86,1.09-1.25,1.37-.36.26-.76.45-1.2.42-.4-.04-.4-2.12-.17-2.89.11-.37.49-.43.7-.12ZM148.51,87.7c.24.36.34,1.58,1.9,1.19-.26.47-.82,1.09-1.2,1.38-.35.27-.74.47-1.17.44-.39-.02-.43-2.11-.22-2.88.1-.37.48-.45.69-.13ZM147.69,80.52c.26.36.38,1.57,1.91,1.15-.24.48-.78,1.11-1.15,1.41-.34.27-.71.48-1.14.46-.39-.02-.47-2.1-.28-2.87.09-.37.45-.46.66-.15ZM146.7,73.37c.26.35.43,1.56,1.91,1.1-.23.49-.74,1.13-1.09,1.43-.33.28-.69.5-1.11.49-.39,0-.49-2.1-.36-2.86.07-.37.43-.46.65-.16ZM145.5,66.24c.26.34.48,1.55,1.92,1.06-.2.49-.7,1.15-1.03,1.46-.31.29-.66.51-1.08.51-.37,0-.55-2.08-.45-2.85.07-.38.41-.49.64-.18ZM144.1,59.16c.27.34.52,1.53,1.92,1-.17.51-.62,1.17-.95,1.49-.3.29-.63.53-1.04.55-.35,0-.63-2.06-.55-2.84.05-.38.39-.49.62-.2ZM142.46,52.13c.28.32.57,1.51,1.92.93-.16.51-.56,1.18-.86,1.52-.28.3-.61.55-1,.57-.35.02-.73-2.02-.66-2.81.04-.37.36-.5.6-.21ZM140.55,45.16c.29.32.62,1.49,1.92.87-.13.52-.5,1.21-.78,1.54-.25.31-.56.57-.95.61-.35.02-.81-2-.77-2.78.02-.38.34-.52.57-.24ZM138.34,38.3c.29.31.68,1.47,1.93.79-.11.52-.44,1.22-.69,1.57-.23.33-.52.59-.9.65-.35.05-.89-1.96-.89-2.74,0-.38.3-.53.55-.26ZM135.78,31.56c.3.29.74,1.43,1.93.7-.08.52-.36,1.23-.6,1.59-.21.34-.48.61-.85.69-.33.06-.97-1.91-1.01-2.7-.02-.38.27-.54.53-.28ZM132.8,24.99c.36.25.83,1.38,1.95.58-.04.53-.28,1.26-.48,1.64-.19.34-.43.63-.79.73-.33.09-1.04-1.86-1.17-2.62-.06-.37.2-.55.49-.32ZM129.31,18.69c.34.24.99,1.28,2,.41.03.52-.16,1.26-.33,1.65-.16.36-.37.67-.72.78-.28.08-1.2-1.77-1.41-2.49-.09-.36.16-.56.46-.35ZM125.29,12.72c.36.22,1.08,1.2,1.99.26.07.52,0,1.25-.13,1.65-.11.37-.28.67-.61.81-.29.13-1.41-1.6-1.66-2.33-.12-.35.1-.57.41-.39ZM120.69,7.2c.38.19,1.17,1.09,1.95.08.13.51.13,1.25.06,1.65-.07.37-.21.69-.51.87-.27.15-1.53-1.47-1.85-2.18-.15-.34.04-.58.36-.43Z"/>
                <path class="cls-26" d="M119.79,10.99c.24.51.67,1.13.94,1.4.25.26.51.42.72.33.2-.1-.48-2.51-.86-3.36-.18-.4-.35-.44-.33-.05.04.46.35,1.88-.48,1.68ZM122.14,17.25c.04-.41.29-.37.46.04.37.84.93,3.29.68,3.39-.29.11-.6-.06-.9-.31-.33-.27-.85-.89-1.13-1.4,1.1.18.86-1.25.89-1.72ZM123.7,25.26c.08-.4.38-.38.55.04.36.85.85,3.32.54,3.41-.35.12-.7-.05-1.04-.31-.36-.27-.94-.89-1.24-1.41,1.3.18,1.1-1.26,1.19-1.73ZM125.02,33.31c.11-.41.44-.39.62.03.35.86.77,3.34.43,3.43-.38.1-.76-.07-1.12-.33-.39-.29-1-.91-1.32-1.42,1.43.2,1.27-1.24,1.4-1.72ZM126.13,41.38c.13-.4.49-.37.65.05.34.87.69,3.36.32,3.44-.4.09-.79-.08-1.16-.35-.39-.28-1.01-.92-1.35-1.44,1.51.21,1.38-1.24,1.53-1.71ZM127.02,49.5c.14-.41.52-.37.67.06.34.88.58,3.37.21,3.46-.41.08-.8-.1-1.18-.38-.4-.3-1.02-.96-1.33-1.48,1.55.26,1.47-1.19,1.63-1.66ZM127.71,57.62c.17-.4.54-.35.69.08.3.89.51,3.39.12,3.46-.42.08-.82-.13-1.2-.41-.4-.3-1.02-.96-1.33-1.5,1.57.29,1.54-1.16,1.73-1.63ZM128.17,65.77c.18-.4.56-.34.7.1.27.89.42,3.4.03,3.46-.44.07-.84-.15-1.22-.44-.41-.31-1.02-1-1.32-1.53,1.6.32,1.59-1.13,1.8-1.59ZM128.43,73.92c.19-.38.58-.32.71.13.27.89.35,3.4-.05,3.45-.44.06-.85-.16-1.22-.47-.41-.32-1.01-1.02-1.32-1.57,1.62.36,1.65-1.07,1.87-1.54ZM128.48,82.08c.2-.39.59-.31.71.14.25.9.28,3.42-.13,3.45-.45.05-.85-.18-1.23-.49-.4-.34-1-1.05-1.29-1.61,1.63.41,1.7-1.04,1.94-1.49ZM128.3,90.24c.22-.38.61-.3.72.15.23.92.19,3.43-.22,3.46-.45.03-.85-.21-1.22-.53-.39-.35-.98-1.07-1.26-1.64,1.64.46,1.74-.99,1.99-1.43ZM127.91,98.38c.23-.37.62-.28.72.18.21.92.09,3.43-.32,3.44-.46.02-.85-.24-1.21-.56-.39-.36-.97-1.1-1.22-1.68,1.63.5,1.78-.94,2.04-1.38ZM127.28,106.53c.24-.37.64-.26.72.18.18.93-.01,3.44-.43,3.44-.46,0-.85-.26-1.2-.6-.37-.37-.93-1.14-1.18-1.72,1.62.55,1.81-.88,2.09-1.31ZM126.4,114.64c.26-.36.64-.24.71.22.15.94-.12,3.43-.54,3.42-.46-.01-.84-.29-1.18-.64-.37-.38-.89-1.17-1.12-1.76,1.61.61,1.85-.83,2.13-1.24ZM125.24,122.72c.26-.35.65-.22.7.24.11.94-.25,3.43-.66,3.4-.45-.03-.83-.32-1.16-.69-.34-.39-.84-1.19-1.05-1.79,1.58.66,1.86-.76,2.16-1.17ZM123.79,130.75c.28-.34.65-.19.69.27.07.94-.38,3.41-.79,3.38-.45-.05-.81-.35-1.11-.73-.34-.41-.8-1.22-.98-1.83,1.53.71,1.87-.69,2.19-1.1ZM122.03,138.72c.29-.33.65-.17.67.29.03.95-.53,3.39-.92,3.34-.45-.06-.78-.39-1.07-.77-.31-.42-.73-1.26-.89-1.86,1.49.77,1.89-.62,2.21-1.01ZM119.91,146.6c.3-.31.65-.14.64.32-.02.95-.69,3.38-1.08,3.3-.43-.08-.74-.42-1-.82-.29-.43-.66-1.28-.78-1.89,1.42.83,1.88-.54,2.22-.91ZM117.42,154.38c.31-.3.64-.1.6.35-.07.94-.87,3.33-1.24,3.24-.41-.09-.7-.44-.94-.86-.25-.44-.57-1.3-.65-1.92,1.34.89,1.86-.46,2.22-.81ZM114.51,162.02c.32-.29.63-.08.57.37-.13.93-1.06,3.28-1.41,3.17-.4-.11-.65-.46-.85-.89-.21-.44-.46-1.32-.51-1.94,1.24.94,1.83-.37,2.2-.71Z"/>
              </g>
            </g>
            <path class="cls-16" d="M0,80.52s12.78,8.71,21.18,12.56c8.4,3.85,25.61,8.53,42.37,25.13,16.76,16.6,17.51,22.52,17.51,22.52,0,0,17.36,46.56,23.39,53.58l-.31,2.28,2.29.31s16.4,19.28,27.53,25.83c11.14,6.55,5.68-10.48-9.62-29.23-15.3-18.75-27.97-48.38-32.1-55.15-4.13-6.76-.93-7.5-.93-7.5l-3.88-2.85-4.46-7.18-4.6-6.12-5.38-6.1s-5.73-3.49-4.77-4.91c0,0-6.88-3.64-7.33-6.03,0,0-7.41-2.55-8.3-4.61,0,0-4.07,1.39-6.04-1.2,0,0-5-.29-7.57-1.41,0,0-21.53-1.36-38.99-9.93Z"/>
            <path class="cls-18" d="M124.34,193.52c-15.3-18.75-27.97-48.38-32.1-55.15-4.13-6.76-.93-7.5-.93-7.5l-3.88-2.85-4.46-7.18-4.6-6.12-5.38-6.1s-5.73-3.49-4.77-4.91c0,0-6.88-3.64-7.33-6.03,0,0-7.41-2.55-8.3-4.61,0,0-4.07,1.39-6.04-1.2,0,0-5-.29-7.57-1.41,0,0-21.33-1.35-38.74-9.81.08.07.15.13.23.2,1.55,1.04,6.7,4.46,12.16,7.67,6.88,3.25,16.33,6.46,29.29,8.92,35.16,6.69,49.2,52.03,49.2,52.03,18.1,41.4,38.2,63.75,48.56,73.38,1.24-3.95-4.64-16.22-15.35-29.33Z"/>
            <path class="cls-14" d="M44.76,14.79s3.84,11.91,7.69,19.22c3.84,7.3,25.37,35.36,31.13,60.73,0,0,12.68,44.2,17.3,68.03,0,0,10,50.57,18.06,50.46,8.06-.11,62.28,8.34,11.73-35.47,0,0-10.96-6.53-16.73-46.89,0,0-4.23-2.31-1.54-6.15,0,0-2.31,0-1.54-2.69.77-2.69,0-7.72,0-7.72,0,0-1.54-2.87-1.92-10.64,0,0-3.46-2.78-1.54-5.85,0,0-2.69-4.23,0-7.3,0,0-5.38-5.38-3.07-8.07,0,0-3.08-3.46-3.08-6.92,0,0-5.76-5.77-4.61-9.22,0,0-3.84-.38-2.69-3.84,0,0-4.23-1.15-3.84-4.23,0,0-6.53-4.23-5.77-6.15,0,0,0-.38-5-2.31-5-1.92-13.45-9.61-18.45-12.68-5-3.07-13.84-16.53-16.14-22.29Z"/>
            <path class="cls-6" d="M45.06,15.7c.11.17.22.34.33.52-.25-.52-.46-1-.64-1.44,0,0,.11.33.3.92ZM130.66,177.75s-10.96-6.53-16.73-46.89c0,0-4.23-2.31-1.54-6.15,0,0-2.31,0-1.54-2.69.77-2.69,0-7.72,0-7.72,0,0-1.54-2.87-1.92-10.64,0,0-3.46-2.78-1.54-5.85,0,0-2.69-4.23,0-7.3,0,0-5.38-5.38-3.07-8.07,0,0-3.08-3.46-3.08-6.92,0,0-5.76-5.77-4.61-9.22,0,0-3.84-.38-2.69-3.84,0,0-4.23-1.15-3.84-4.23,0,0-6.53-4.23-5.77-6.15,0,0,0-.38-5-2.31-5-1.92-13.45-9.61-18.45-12.68-1.22-.75-2.67-2.12-4.19-3.84,7.52,10.81,15.6,21.32,21.1,25.36,13.07,9.61,16.53,67.26,25.75,78.79,9.22,11.53,16.53,47.66,34.21,58.42,4.44,2.7,9.15,4.64,13.48,5.82-1.95-5.36-8.04-13.02-20.58-23.88Z"/>
            <path class="cls-37" d="M87.65,30.44c.08-1.21,8.8,19.13,15.99,23.72,0,0,1.1,5.71,2.95,4.45,0,0,1.1,5.71,3.7,4.02,0,0,2.45,10.25,5.33,6.24,0,0-2.76,5.93.35,6.14,0,0,.74,5.73,2.93,3.68,0,0-2.53,2.84.33,5.76,0,0,.89,8.8,3.15,7.9,0,0-1.99,5.5.29,4.99,0,0-1.81,2.03.35,6.14,0,0-2.28.52.24,4.22,0,0-1.61,5.48,2.63,5.62,0,0-2.96,2.03.2,3.42,0,0-3.3,2.92-1.67,4.37,0,0,.37,6.52,2.23,5.26,0,0-2.83,4.4.29,4.99,0,0-4.65,12.82,1.28,22.37,0,0,4.22,60.08,32.07,62.33,0,0-45.83,49.3-50.97-95.2,0,0-.1-36.61-8.02-53.87-7.92-17.25-14.06-30.38-13.65-36.56Z"/>
            <path class="cls-11" d="M264.03,98.03c.05-.93-14.09,17.61-22.16,21.16-8.07,3.55-49.47,29.82-52.59,41.24-3.12,11.42-27.38,58.45-37.05,62.77-9.67,4.32-17.83-11.17,17.13-57.17,0,0,4.21-2.52,3.65-4.52,0,0,2.42-1.08,3.44-3.97,0,0,4.5-2.48,4.46-4.85,0,0,4.28-2.08,3.83-5.29,0,0,4.36-1.46,3.95-4.39,0,0,4.81-6.04,4.08-7.42-.74-1.38,3.97-.35,4.27-4.35,0,0,6.34-1.59,5.5-3.55,0,0,6.55-1.3,5.41-3.77,0,0,4.62-2.08,4.89-4.2,0,0,8.43-2.96,7.63-4.63,0,0,6.72,1.14,6.6-1.81,0,0,4.2,1.49,4.72-.96,0,0,4.92.5,4.72-.96,0,0,9.51-1.38,11.31-2.8,1.8-1.41,16.14-9.06,16.22-10.55Z"/>
            <path class="cls-12" d="M236.5,111.38c.2,1.46-4.72.96-4.72.96-.51,2.45-4.72.96-4.72.96.13,2.95-6.6,1.81-6.6,1.81.8,1.67-7.63,4.63-7.63,4.63-.28,2.12-4.89,4.2-4.89,4.2,1.14,2.47-5.41,3.77-5.41,3.77.84,1.96-5.5,3.55-5.5,3.55-.3,4.01-5.01,2.97-4.27,4.35.74,1.38-4.08,7.42-4.08,7.42.41,2.93-3.95,4.39-3.95,4.39.45,3.2-3.83,5.29-3.83,5.29.05,2.37-4.46,4.85-4.46,4.85-1.02,2.89-3.44,3.97-3.44,3.97.09.31.06.64-.05.97,7.45-4.6,24.9-20.53,33.76-25.27,10.23-5.48,33.6-20.52,50.73-31.89,2.09-2.33,3.87-4.42,5.05-5.76-3.76,2.77-13.25,7.89-14.69,9.02-1.8,1.41-11.31,2.8-11.31,2.8ZM262.5,99.56c.94-.69,1.52-1.23,1.53-1.53,0-.19-.56.42-1.53,1.53Z"/>
            <g>
              <path class="cls-22" d="M18.6,153.82c1.15.38,1.92,4.38,15.37,6.23,13.45,1.84,28.06,3,40.74,9.92,12.68,6.92,26.44,30.91,39.35,42.36,12.92,11.45,28.29,20.12,40.97,8.09l12.68-12.02s.38-2.69-12.68-1.92c-13.07.77-14.66-1.15-20.78-7.69,0,0-3.05,1.15-4.58-1.54,0,0-4.61-4.87-3.07-7.24,0,0-1.92.7-3.07-3.14l-.96-4.15-.19-.84s1.54,4.23-1.15-3.08c0,0-2.31.38-3.84-3.84,0,0-2.69,0-3.07-3.46,0,0-4.23-2.31-4.61-6.15,0,0-3.46,0-3.84-3.46,0,0-5.77.38-6.53-4.61,0,0-7.3-1.54-6.15-4.61,0,0-5,.38-6.53-3.46,0,0-3.84,4.23-5,0,0,0-1.6-.54-3.68-3.34,1.26,1.51-2.53,1.65-6.34,0,0,0-5.25,3.28-6.5,1.04,0,0-1.92,1.77-4.61-1.04,0,0-2.07,4.88-4.88,3.34,0,0-7.03,3.08-7.03,1.54s-11.53,8.84-29.98,1.92"/>
              <path class="cls-7" d="M134.25,198.79s-3.05,1.15-4.58-1.54c0,0-4.61-4.87-3.07-7.24,0,0-1.92.7-3.07-3.14l-.96-4.15-.16-.71c-.25-.66-.62-1.68-1.18-3.21,0,0-2.31.38-3.84-3.84,0,0-2.69,0-3.07-3.46,0,0-4.23-2.31-4.61-6.15,0,0-3.46,0-3.84-3.46,0,0-5.77.38-6.53-4.61,0,0-7.3-1.54-6.15-4.61,0,0-5,.38-6.53-3.46,0,0-3.84,4.23-5,0,0,0-1.6-.54-3.68-3.34,1.26,1.51-2.53,1.65-6.34,0,0,0-5.25,3.28-6.5,1.04,0,0-1.92,1.77-4.61-1.04,0,0-2.07,4.88-4.88,3.34,0,0-7.03,3.08-7.03,1.54s-11.53,8.84-29.98,1.92v.37c4.8,2.1,10.44,4.55,16.56,7.17,13.12,1.76,27.24,3.04,39.56,9.75,4.47,2.44,9.07,7,13.72,12.38,3.71,1.47,7.23,2.84,10.46,4.07,28.59,10.87,42.03,26.39,45.58,19.72-4.29-.93-6.35-3.21-10.22-7.34ZM122.37,181.88l.03.13c.93,2.51-.03-.13-.03-.13Z"/>
            </g>
            <g>
              <path class="cls-23" d="M267.92,153.82c-1.15.38-1.92,4.38-15.37,6.23-13.45,1.84-28.06,3-40.74,9.92-12.68,6.92-26.44,30.91-39.35,42.36-12.92,11.45-28.29,20.12-40.97,8.09l-12.68-12.02s-.38-2.69,12.68-1.92c13.07.77,14.66-1.15,20.78-7.69,0,0,3.05,1.15,4.58-1.54,0,0,4.61-4.87,3.07-7.24,0,0,1.92.7,3.08-3.14l.96-4.15.19-.84s-1.54,4.23,1.15-3.08c0,0,2.31.38,3.84-3.84,0,0,2.69,0,3.07-3.46,0,0,4.23-2.31,4.61-6.15,0,0,3.46,0,3.84-3.46,0,0,5.77.38,6.53-4.61,0,0,7.3-1.54,6.15-4.61,0,0,5,.38,6.53-3.46,0,0,3.84,4.23,5,0,0,0,1.6-.54,3.68-3.34-1.26,1.51,2.53,1.65,6.34,0,0,0,5.25,3.28,6.5,1.04,0,0,1.92,1.77,4.61-1.04,0,0,2.07,4.88,4.88,3.34,0,0,7.03,3.08,7.03,1.54s11.53,8.84,29.98,1.92"/>
              <path class="cls-5" d="M142.04,206.13c3.55,6.66,16.99-8.86,45.58-19.72,3.24-1.23,6.75-2.6,10.46-4.07,4.65-5.38,9.25-9.94,13.72-12.38,12.31-6.72,26.44-8,39.56-9.75,6.12-2.63,11.76-5.07,16.56-7.17v-.37c-18.45,6.92-29.98-3.46-29.98-1.92s-7.03-1.54-7.03-1.54c-2.81,1.54-4.88-3.34-4.88-3.34-2.69,2.81-4.61,1.04-4.61,1.04-1.25,2.24-6.5-1.04-6.5-1.04-3.81,1.65-7.6,1.51-6.34,0-2.08,2.81-3.68,3.34-3.68,3.34-1.15,4.23-5,0-5,0-1.54,3.84-6.53,3.46-6.53,3.46,1.15,3.08-6.15,4.61-6.15,4.61-.77,5-6.53,4.61-6.53,4.61-.38,3.46-3.84,3.46-3.84,3.46-.38,3.84-4.61,6.15-4.61,6.15-.38,3.46-3.07,3.46-3.07,3.46-1.54,4.23-3.84,3.84-3.84,3.84-.56,1.53-.94,2.54-1.18,3.21l-.16.71-.96,4.15c-1.15,3.84-3.08,3.14-3.08,3.14,1.54,2.37-3.07,7.24-3.07,7.24-1.54,2.69-4.58,1.54-4.58,1.54-3.87,4.13-5.93,6.41-10.22,7.34ZM164.12,182.01l.03-.13s-.96,2.64-.03.13Z"/>
            </g>
            <g class="cls-13">
              <path class="cls-34" d="M128.22,153.73c-5.94-9.55-1.28-22.37-1.28-22.37-3.11-.59-.29-4.99-.29-4.99-1.85,1.26-2.23-5.26-2.23-5.26-1.62-1.45,1.67-4.37,1.67-4.37-3.16-1.39-.2-3.42-.2-3.42-4.24-.14-2.63-5.62-2.63-5.62-2.52-3.71-.24-4.22-.24-4.22-2.16-4.11-.35-6.14-.35-6.14-2.28.52-.29-4.99-.29-4.99-2.26.9-3.15-7.9-3.15-7.9-2.86-2.91-.33-5.76-.33-5.76-2.19,2.05-2.93-3.68-2.93-3.68-.06,0-.12-.01-.17-.02-.94,12.51-1.31,23.44-.13,27.76,3.41,12.51,7.47,96.58,20.3,105.47,5.6,3.88,12.37,9.22,18.32,12.58,3.67-2.23,6-4.74,6-4.74-27.85-2.25-32.07-62.33-32.07-62.33Z"/>
            </g>
            <path class="cls-8" d="M176.49,186.59c-6.15,6.21-14.6-24.65-14.6-24.65,0-26.52,10.76-46.51,10.38-60.73-.16-5.86,1.25-14.13,2.96-22.07-2.98,5.99-5.39,10.92-6.8,14.03-7.23,15.88-70.98,93.87-24.81,119.3,2.46.2,4.99.18,7.52-.03,16.51-1.38,31.51-32.05,25.36-25.85Z"/>
            <g>
              <path class="cls-26" d="M155.61,172.37c.6,38.58-9.94,73.37-30.15,41.14-20.21-32.23-3.96-86.29-4.14-117.14-.18-30.86-23.03-55.74-23.03-55.74,0,0,5.97,1.75,8.3,3.08l2.02-.54,1.41,2.63s6.73,4.6,8.73,6.18l1.71-.1.54,2.02s6.18,5.85,7.61,7.52l1.8.46-.24,1.96s4.31,6.17,5.57,9.02l2.55,1.48-.71,1.46s4.66,8.21,5.52,10.94l1.24.55s-1.11,1.34-.11,2.7,4.15,10.8,4.63,13.59l2.09.99-1.04,2.86s2.56,9.34,2.67,13.35l1.37.15s-.93,1.31.19,7.83c1.12,6.52,1.49,43.6,1.49,43.6Z"/>
              <path class="cls-41" d="M132.78,197.68c-.4-1.25-.69-5.15-.69-5.15l-1.96-2.68s1.01.39.66-1.62c-.84-4.94-.96-11.13-.96-11.13l-2.12-2.46s1.32,1.09,1.67-1.23c.36-2.32.32-11.35.32-11.35l-1.96-2.68,1.61-.46c1.05-4.89.34-13.43.34-13.43l-1.66-3.1,1.68-.1c1.14-4.34.1-12.63.1-12.63l-1.38-1.46s1.28-.22,1.83-1.44c-.11-3.94-1.55-12.35-1.55-12.35l-1.32-2.22s1.68-.1,1.4-1.74c-.42-5.76-3.34-9.6-3.34-9.6l1.09-1.32-1.58-10.88-1.47-1.16.93-1.15s-1.87-8.44-3.06-9.64l-1.54-1.57s.84-.85.15-3.27c-.7-2.42-3.99-9.32-3.99-9.32l-1.49.02s.48-1.23-.24-3.4c-.72-2.17-5.12-9.11-5.12-9.11l-1.81-.5s.2-1.53-.66-2.53c-1.07-1.45-4.71-3.84-7.78-5.71,3.6,4.18,22.26,27.18,22.43,55.06.18,30.86-16.07,84.91,4.14,117.14,10.05,16.03,17.71,15.48,22.8,6.12-4.46-6.39-10.84-15.73-11.92-17.67-1.63-2.92-3.16-3.04-3.56-4.29Z"/>
              <g class="cls-30">
                <path class="cls-36" d="M126.76,134.15c-1.76,42.08-2.94,71.62,20.49,87.17.35-.53.68-1.09,1.01-1.69-4.46-6.39-10.84-15.73-11.92-17.67-1.63-2.92-3.16-3.04-3.56-4.29-.4-1.25-.69-5.15-.69-5.15l-1.96-2.68s1.01.39.66-1.62c-.84-4.94-.96-11.13-.96-11.13l-2.12-2.46s1.32,1.09,1.67-1.23c.36-2.32.32-11.35.32-11.35l-1.96-2.68,1.61-.46c1.05-4.89.34-13.43.34-13.43l-1.66-3.1,1.68-.1c1.14-4.34.1-12.63.1-12.63l-1.38-1.46s1.28-.22,1.83-1.44c-.11-3.94-1.55-12.35-1.55-12.35l-1.32-2.22s1.68-.1,1.4-1.74c-.42-5.76-3.34-9.6-3.34-9.6l1.09-1.32-1.58-10.88-1.47-1.16.93-1.15s-1.87-8.44-3.06-9.64l-1.54-1.57s.84-.85.15-3.27c-.7-2.42-3.99-9.32-3.99-9.32l-1.49.02s.48-1.23-.24-3.4c-.72-2.17-5.12-9.11-5.12-9.11l-1.81-.5s.2-1.53-.66-2.53c-.98-1.34-4.14-3.47-7.03-5.25,9.91,9.5,28.27,34.94,27.12,92.39Z"/>
              </g>
              <path class="cls-43" d="M152.57,120.79c-.11-4.01-2.67-13.35-2.67-13.35l1.04-2.86-2.09-.99c-.48-2.79-3.63-12.23-4.63-13.59s.11-2.7.11-2.7l-1.24-.55c-.85-2.73-5.52-10.94-5.52-10.94l.71-1.46-2.55-1.48c-1.25-2.85-5.57-9.02-5.57-9.02l.24-1.96-1.8-.46c-1.44-1.67-7.61-7.52-7.61-7.52l-.54-2.02-1.71.1c-2-1.58-8.73-6.18-8.73-6.18l-1.41-2.63-2.02.54c-2.34-1.33-8.3-3.08-8.3-3.08,0,0,.24.26.66.75,23.58,13.48,43.55,36.58,49.03,75.91,4.49,32.27,5.34,64.59,5.18,87.16,1.8-9.2,2.63-20.46,2.45-32.08,0,0-.37-37.08-1.49-43.6-1.12-6.52-.19-7.83-.19-7.83l-1.37-.15Z"/>
              <g class="cls-15">
                <path class="cls-39" d="M119.16,123.48c-3.55,29.67-8.8,65.95,6.3,90.03,8.98,14.32,16.04,15.4,21.07,8.81-34.76-14.78-30.24-67-27.37-98.84Z"/>
              </g>
            </g>
            <g>
              <path class="cls-26" d="M148.93,168.97c-13.5,36.15-15.24,72.46,14.61,48.87,29.84-23.59,32.67-79.96,43.19-108.97,10.52-29.01,40.38-44.79,40.38-44.79,0,0-6.21-.35-8.85.11l-1.72-1.18-2.21,2.01s-7.88,2.08-10.29,2.89l-1.58-.67-1.18,1.72s-7.78,3.44-9.69,4.53l-1.85-.17-.43,1.93s-6.13,4.36-8.27,6.63l-2.9.54.18,1.62s-7.15,6.17-8.87,8.46l-1.36.11s.6,1.64-.8,2.58c-1.4.95-7.53,8.78-8.91,11.25l-2.3.23.02,3.05s-5.54,7.94-6.99,11.68l-1.34-.32s.43,1.54-2.8,7.31c-3.24,5.77-16.02,40.58-16.02,40.58Z"/>
              <path class="cls-35" d="M161.95,200.47c.8-1.04,2.38-4.62,2.38-4.62l2.75-1.86s-1.08.03-.08-1.75c2.45-4.37,4.64-10.17,4.64-10.17l2.82-1.61s-1.61.59-1.16-1.72c.44-2.3,3.51-10.8,3.51-10.8l2.75-1.86-1.37-.98c.65-4.95,4.18-12.76,4.18-12.76l2.61-2.37-1.55-.66c.38-4.47,4.14-11.93,4.14-11.93l1.79-.91s-1.13-.63-1.24-1.97c1.42-3.67,5.6-11.12,5.6-11.12l1.99-1.65s-1.55-.66-.73-2.11c2.33-5.29,6.36-7.92,6.36-7.92l-.59-1.61,5.14-9.72,1.77-.6-.49-1.39s4.59-7.32,6.12-8.06l1.98-.96s-.51-1.08.96-3.13c1.47-2.05,6.88-7.44,6.88-7.44l1.39.52s-.04-1.32,1.36-3.13c1.4-1.81,7.87-6.87,7.87-6.87l1.87.14s.32-1.5,1.47-2.16c1.49-1.01,5.72-2.04,9.24-2.77-4.79,2.73-30.09,18.14-39.59,44.35-10.52,29.01-13.34,85.38-43.19,108.97-14.85,11.73-21.88,8.64-23.53-1.88,6.35-4.52,15.49-11.19,17.16-12.65,2.52-2.21,3.99-1.8,4.79-2.84Z"/>
              <g class="cls-30">
                <path class="cls-40" d="M188.92,142.64c-12.46,40.23-21.25,68.46-48.53,75.25-.15-.61-.28-1.25-.39-1.93,6.35-4.52,15.49-11.19,17.16-12.65,2.52-2.21,3.99-1.8,4.79-2.84.8-1.04,2.38-4.62,2.38-4.62l2.75-1.86s-1.08.03-.08-1.75c2.45-4.37,4.64-10.17,4.64-10.17l2.82-1.61s-1.61.59-1.16-1.72c.44-2.3,3.51-10.8,3.51-10.8l2.75-1.86-1.37-.98c.65-4.95,4.18-12.76,4.18-12.76l2.61-2.37-1.55-.66c.38-4.47,4.14-11.93,4.14-11.93l1.79-.91s-1.13-.63-1.24-1.97c1.42-3.67,5.6-11.12,5.6-11.12l1.99-1.65s-1.55-.66-.73-2.11c2.33-5.29,6.36-7.92,6.36-7.92l-.59-1.61,5.14-9.72,1.77-.6-.49-1.39s4.59-7.32,6.12-8.06l1.98-.96s-.51-1.08.96-3.13c1.47-2.05,6.88-7.44,6.88-7.44l1.39.52s-.04-1.32,1.36-3.13c1.4-1.81,7.87-6.87,7.87-6.87l1.87.14s.32-1.5,1.47-2.16c1.37-.93,5.06-1.88,8.39-2.59-12.52,5.63-38.35,23.44-56.53,77.94Z"/>
              </g>
              <path class="cls-31" d="M169.09,121.4c1.45-3.74,6.99-11.68,6.99-11.68l-.02-3.05,2.3-.23c1.39-2.47,7.52-10.3,8.91-11.25,1.4-.95.8-2.58.8-2.58l1.36-.11c1.72-2.29,8.87-8.46,8.87-8.46l-.18-1.62,2.9-.54c2.14-2.27,8.27-6.63,8.27-6.63l.43-1.93,1.85.17c1.91-1.09,9.69-4.53,9.69-4.53l1.18-1.72,1.58.67c2.41-.81,10.29-2.89,10.29-2.89l2.21-2.01,1.72,1.18c2.65-.47,8.85-.11,8.85-.11,0,0-.31.17-.87.49-26.74,4.79-53.29,19.86-71.64,55.07-15.06,28.89-26.69,59.06-34.11,80.37,1.39-9.27,4.39-20.16,8.45-31.04,0,0,12.78-34.81,16.02-40.58,3.24-5.77,2.8-7.31,2.8-7.31l1.34.32Z"/>
              <g class="cls-15">
                <path class="cls-42" d="M199.66,135.13c-6.61,29.14-13.82,65.08-36.13,82.71-13.26,10.48-20.28,9.13-22.81,1.23,37.7-2.27,50.96-52.97,58.93-83.94Z"/>
              </g>
            </g>
            <path class="cls-32" d="M144.65,199.33s25.25-88.06,66.58-118.81c0,0-33.94,57.94-39.3,80.43-5.36,22.49-18.87,47.61-27.28,38.38Z"/>
            <path class="cls-4" d="M145.01,176.81s3.64-70.09-19.36-105.04c0,0,11.36,49.51,9.2,68.17-2.15,18.65,1.17,41.57,10.16,36.87Z"/>
          </g>
          <g>
            <g>
              <g>
                <path class="cls-27" d="M98.29,219.72s-.01-.04-.02-.05c-.18-.9,1.94-2.46,2.58-2.88,1.73-1.15,3.77-1.82,5.86-1.73,1.92.08,3.74.75,5.2,2.01.82.7,2.23,2.43,1.02,3.26-.75.51-2.68.29-3.54.31-1.55.05-3.1.02-4.65-.04-1.02-.04-6.07.19-6.46-.87Z"/>
                <path class="cls-17" d="M98.29,219.72s-.01-.04-.02-.05c-.18-.9,1.94-2.46,2.58-2.88,1.73-1.15,3.77-1.82,5.86-1.73,1.92.08,3.74.75,5.2,2.01.82.7,2.23,2.43,1.02,3.26-.75.51-2.68.29-3.54.31-1.55.05-3.1.02-4.65-.04-1.02-.04-6.07.19-6.46-.87Z"/>
                <path class="cls-21" d="M100.85,216.79c-.36.24-1.2.84-1.83,1.48,1.11.03,2.13,0,2.53.01,1.55.06,3.1.09,4.65.04.87-.03,2.79.2,3.54-.31.83-.57.42-1.56-.18-2.36-.9-.35-1.86-.55-2.85-.6-2.1-.09-4.13.57-5.86,1.73Z"/>
                <path class="cls-17" d="M108.62,217.89c0,.29-.23.52-.52.52s-.52-.23-.52-.52.23-.52.52-.52.52.23.52.52Z"/>
                <path class="cls-17" d="M110.27,217.34c0,.2-.16.36-.36.36s-.36-.16-.36-.36.16-.36.36-.36.36.16.36.36Z"/>
                <path class="cls-17" d="M108.51,216.43c0,.15-.12.28-.28.28s-.27-.12-.27-.28.12-.27.27-.27.28.12.28.27Z"/>
                <path class="cls-17" d="M106.7,218.3c0,.3-.25.55-.55.55s-.55-.25-.55-.55.25-.55.55-.55.55.25.55.55Z"/>
              </g>
              <g>
                <path class="cls-1" d="M107.7,224.58s-.02-.04-.02-.07c-.24-1.18,2.53-3.2,3.37-3.76,2.27-1.5,4.91-2.37,7.65-2.25,2.51.11,4.88.98,6.78,2.62,1.07.92,2.9,3.16,1.33,4.25-.98.67-3.49.38-4.62.41-2.02.06-4.04.02-6.06-.06-1.34-.05-7.92.25-8.42-1.14Z"/>
                <path class="cls-2" d="M107.7,224.58s-.02-.04-.02-.07c-.24-1.18,2.53-3.2,3.37-3.76,2.27-1.5,4.91-2.37,7.65-2.25,2.51.11,4.88.98,6.78,2.62,1.07.92,2.9,3.16,1.33,4.25-.98.67-3.49.38-4.62.41-2.02.06-4.04.02-6.06-.06-1.34-.05-7.92.25-8.42-1.14Z"/>
                <path class="cls-1" d="M122.87,219.81c-.33-.28-.68-.54-1.05-.75-1-.33-2.06-.52-3.13-.56-2.73-.12-5.38.75-7.65,2.25-.06.04-.13.09-.21.14-.48.48-.84.98-.76,1.36,0,.02,0,.04.01.05.36,1,5.09.78,6.06.82,1.45.06,2.91.09,4.36.04.81-.03,2.61.19,3.32-.3,1.13-.77-.19-2.39-.95-3.05Z"/>
                <path class="cls-2" d="M122.68,221.21c0,.21-.17.38-.37.38s-.37-.17-.37-.38.17-.37.37-.37.37.17.37.37Z"/>
                <circle class="cls-2" cx="123.97" cy="222.17" r=".3"/>
                <path class="cls-2" d="M122.45,223.15c0,.3-.24.54-.54.54s-.54-.24-.54-.54.24-.54.54-.54.54.24.54.54Z"/>
                <path class="cls-2" d="M123.2,222.42c0,.1-.08.19-.19.19s-.19-.08-.19-.19.08-.19.19-.19.19.08.19.19Z"/>
              </g>
              <g>
                <path class="cls-24" d="M101.06,221.65s0-.02,0-.03c-.09-.56.96-1.52,1.27-1.79.86-.71,1.86-1.12,2.89-1.07.95.05,1.84.46,2.56,1.24.4.44,1.1,1.5.5,2.02-.37.32-1.32.18-1.74.2-.76.03-1.53.01-2.29-.02-.5-.03-2.99.12-3.18-.54Z"/>
                <path class="cls-19" d="M101.06,221.65s0-.02,0-.03c-.09-.56.96-1.52,1.27-1.79.86-.71,1.86-1.12,2.89-1.07.95.05,1.84.46,2.56,1.24.4.44,1.1,1.5.5,2.02-.37.32-1.32.18-1.74.2-.76.03-1.53.01-2.29-.02-.5-.03-2.99.12-3.18-.54Z"/>
                <path class="cls-38" d="M102.32,219.83c-.17.14-.57.5-.87.89.51.01.96,0,1.15,0,.76.04,1.53.06,2.29.03.42-.02,1.37.12,1.74-.2.41-.35.21-.97-.09-1.46-.42-.19-.87-.31-1.33-.33-1.03-.05-2.03.36-2.89,1.07Z"/>
                <path class="cls-38" d="M105.26,220.69c0,.18-.12.32-.26.32s-.26-.14-.26-.32.11-.32.26-.32.26.14.26.32Z"/>
                <path class="cls-38" d="M105.94,220.79c0,.07-.05.13-.1.13s-.1-.06-.1-.13.04-.13.1-.13.1.06.1.13Z"/>
                <path class="cls-38" d="M106.42,219.89c0,.19-.12.35-.27.35s-.27-.15-.27-.35.12-.34.27-.34.27.15.27.34Z"/>
                <path class="cls-38" d="M107.28,220.64c0,.2-.13.37-.29.37s-.29-.16-.29-.37.13-.37.29-.37.29.16.29.37Z"/>
              </g>
            </g>
            <g>
              <path class="cls-27" d="M184.88,217.86s.01-.04.02-.05c.18-.9-1.94-2.46-2.58-2.88-1.74-1.15-3.77-1.82-5.86-1.73-1.92.08-3.74.75-5.2,2.01-.82.7-2.23,2.43-1.02,3.25.75.51,2.68.29,3.54.32,1.55.05,3.1.02,4.65-.04,1.02-.04,6.07.19,6.46-.87Z"/>
              <path class="cls-17" d="M184.88,217.86s.01-.04.02-.05c.18-.9-1.94-2.46-2.58-2.88-1.74-1.15-3.77-1.82-5.86-1.73-1.92.08-3.74.75-5.2,2.01-.82.7-2.23,2.43-1.02,3.25.75.51,2.68.29,3.54.32,1.55.05,3.1.02,4.65-.04,1.02-.04,6.07.19,6.46-.87Z"/>
              <path class="cls-21" d="M182.32,214.93c.36.24,1.2.84,1.83,1.48-1.11.02-2.13,0-2.53.01-1.55.06-3.1.09-4.65.04-.87-.03-2.79.2-3.54-.32-.83-.57-.42-1.56.18-2.36.9-.35,1.86-.55,2.85-.6,2.1-.09,4.13.57,5.86,1.73Z"/>
              <path class="cls-17" d="M174.55,216.02c0,.29.23.52.52.52s.52-.24.52-.52-.23-.52-.52-.52-.52.23-.52.52Z"/>
              <path class="cls-17" d="M172.9,215.47c0,.2.16.36.36.36s.36-.16.36-.36-.16-.36-.36-.36-.36.16-.36.36Z"/>
              <path class="cls-17" d="M174.66,214.57c0,.15.12.28.28.28s.27-.12.27-.28-.12-.27-.27-.27-.28.12-.28.27Z"/>
              <path class="cls-17" d="M176.48,216.44c0,.3.25.55.55.55s.55-.25.55-.55-.25-.55-.55-.55-.55.25-.55.55Z"/>
            </g>
            <g>
              <path class="cls-1" d="M180.84,222s.01-.04.02-.07c.24-1.18-2.54-3.2-3.37-3.75-2.27-1.5-4.91-2.37-7.65-2.25-2.51.11-4.88.97-6.78,2.62-1.07.92-2.9,3.16-1.33,4.25.98.67,3.49.37,4.62.41,2.02.07,4.04.02,6.06-.05,1.34-.05,7.92.25,8.42-1.14Z"/>
              <path class="cls-2" d="M180.84,222s.01-.04.02-.07c.24-1.18-2.54-3.2-3.37-3.75-2.27-1.5-4.91-2.37-7.65-2.25-2.51.11-4.88.97-6.78,2.62-1.07.92-2.9,3.16-1.33,4.25.98.67,3.49.37,4.62.41,2.02.07,4.04.02,6.06-.05,1.34-.05,7.92.25,8.42-1.14Z"/>
              <path class="cls-1" d="M165.67,217.25c.33-.29.68-.53,1.05-.75,1-.33,2.06-.52,3.13-.56,2.73-.12,5.38.75,7.65,2.25.06.04.13.08.21.14.48.48.84.98.76,1.37,0,.02,0,.03-.02.05-.36,1-5.09.78-6.05.82-1.45.06-2.91.09-4.36.04-.81-.03-2.61.19-3.32-.29-1.13-.78.19-2.39.95-3.05Z"/>
              <path class="cls-2" d="M165.86,218.64c0,.21.17.37.37.37s.37-.17.37-.37-.17-.38-.37-.38-.37.17-.37.38Z"/>
              <path class="cls-2" d="M164.27,219.6c0,.17.13.3.3.3s.3-.13.3-.3-.14-.31-.3-.31-.3.14-.3.31Z"/>
              <path class="cls-2" d="M166.09,220.58c0,.3.24.54.54.54s.54-.24.54-.54-.24-.54-.54-.54-.54.24-.54.54Z"/>
              <path class="cls-2" d="M165.35,219.86c0,.1.08.19.19.19s.19-.08.19-.19-.09-.19-.19-.19-.19.09-.19.19Z"/>
            </g>
            <g>
              <path class="cls-24" d="M177.01,224.02s0-.02,0-.03c.09-.56-.96-1.52-1.27-1.78-.86-.71-1.86-1.13-2.89-1.07-.95.05-1.84.46-2.56,1.24-.4.44-1.09,1.5-.5,2.01.37.32,1.32.18,1.75.2.76.03,1.53,0,2.29-.03.5-.03,2.99.12,3.18-.54Z"/>
              <path class="cls-19" d="M177.01,224.02s0-.02,0-.03c.09-.56-.96-1.52-1.27-1.78-.86-.71-1.86-1.13-2.89-1.07-.95.05-1.84.46-2.56,1.24-.4.44-1.09,1.5-.5,2.01.37.32,1.32.18,1.75.2.76.03,1.53,0,2.29-.03.5-.03,2.99.12,3.18-.54Z"/>
              <path class="cls-38" d="M175.75,222.21c.17.14.57.5.87.89-.51.01-.96,0-1.15,0-.76.04-1.52.06-2.29.02-.43-.02-1.37.12-1.75-.19-.41-.36-.21-.97.09-1.46.42-.2.87-.31,1.33-.33,1.03-.06,2.03.36,2.89,1.07Z"/>
              <path class="cls-38" d="M172.82,223.06c0,.18.11.32.26.32s.26-.14.26-.32-.11-.32-.26-.32-.26.15-.26.32Z"/>
              <ellipse class="cls-38" cx="172.24" cy="223.17" rx=".1" ry=".13"/>
              <path class="cls-38" d="M171.65,222.26c0,.19.12.34.27.34s.27-.15.27-.34-.12-.35-.27-.35-.27.16-.27.35Z"/>
              <path class="cls-38" d="M170.8,223.02c0,.2.13.37.29.37s.29-.17.29-.37-.13-.37-.29-.37-.29.16-.29.37Z"/>
            </g>
            <g>
              <path class="cls-27" d="M165.08,224.2s.01-.03.01-.05c.17-.83-1.8-2.27-2.38-2.66-1.61-1.06-3.48-1.68-5.42-1.59-1.77.08-3.46.69-4.81,1.86-.75.65-2.06,2.24-.94,3,.7.48,2.47.26,3.27.29,1.43.05,2.86.02,4.29-.04.95-.04,5.61.18,5.96-.81Z"/>
              <path class="cls-17" d="M165.08,224.2s.01-.03.01-.05c.17-.83-1.8-2.27-2.38-2.66-1.61-1.06-3.48-1.68-5.42-1.59-1.77.08-3.46.69-4.81,1.86-.75.65-2.06,2.24-.94,3,.7.48,2.47.26,3.27.29,1.43.05,2.86.02,4.29-.04.95-.04,5.61.18,5.96-.81Z"/>
              <path class="cls-21" d="M162.71,221.49c.32.22,1.07.75,1.64,1.33-.96.02-1.81,0-2.15,0-1.43.06-2.86.09-4.29.04-.8-.02-2.58.19-3.27-.29-.77-.53-.39-1.45.17-2.18.79-.3,1.63-.46,2.5-.5,1.94-.08,3.81.53,5.42,1.59Z"/>
              <path class="cls-21" d="M157.21,222.76c0,.27.22.48.48.48s.48-.22.48-.48-.22-.48-.48-.48-.48.21-.48.48Z"/>
              <path class="cls-21" d="M155.92,222.92c0,.11.09.19.19.19s.19-.08.19-.19-.09-.19-.19-.19-.19.08-.19.19Z"/>
              <path class="cls-21" d="M155.02,221.58c0,.28.23.51.51.51s.51-.23.51-.51-.23-.51-.51-.51-.51.23-.51.51Z"/>
              <path class="cls-21" d="M153.42,222.7c0,.3.24.54.55.54s.55-.24.55-.54-.25-.55-.55-.55-.55.24-.55.55Z"/>
            </g>
            <g>
              <path class="cls-1" d="M134.36,226.22s-.01-.05-.02-.07c-.24-1.17,2.53-3.2,3.36-3.75,2.27-1.5,4.91-2.37,7.65-2.25,2.51.11,4.88.97,6.78,2.62,1.07.92,2.9,3.17,1.33,4.24-.98.67-3.49.38-4.62.41-2.02.07-4.04.02-6.06-.05-1.33-.05-7.92.25-8.42-1.14Z"/>
              <path class="cls-2" d="M134.36,226.22s-.01-.05-.02-.07c-.24-1.17,2.53-3.2,3.36-3.75,2.27-1.5,4.91-2.37,7.65-2.25,2.51.11,4.88.97,6.78,2.62,1.07.92,2.9,3.17,1.33,4.24-.98.67-3.49.38-4.62.41-2.02.07-4.04.02-6.06-.05-1.33-.05-7.92.25-8.42-1.14Z"/>
              <path class="cls-1" d="M149.53,221.46c-.33-.29-.68-.54-1.05-.76-1-.33-2.06-.52-3.13-.56-2.73-.12-5.38.75-7.65,2.25-.06.04-.13.08-.2.14-.48.48-.84.98-.76,1.36,0,.02,0,.03.01.05.36,1,5.1.79,6.05.82,1.45.06,2.91.09,4.36.04.81-.03,2.61.19,3.32-.29,1.13-.78-.19-2.39-.95-3.05Z"/>
              <path class="cls-2" d="M149.35,222.86c0,.21-.17.37-.37.37s-.37-.17-.37-.37.17-.38.37-.38.37.17.37.38Z"/>
              <path class="cls-2" d="M150.94,223.81c0,.17-.14.3-.3.3s-.3-.14-.3-.3.14-.3.3-.3.3.14.3.3Z"/>
              <path class="cls-2" d="M149.11,224.8c0,.3-.24.54-.54.54s-.54-.24-.54-.54.24-.54.54-.54.54.24.54.54Z"/>
              <path class="cls-2" d="M149.86,224.07c0,.1-.08.19-.19.19s-.19-.08-.19-.19.08-.19.19-.19.19.08.19.19Z"/>
            </g>
            <g>
              <path class="cls-24" d="M138.72,228.83s0-.02,0-.03c-.09-.56.96-1.52,1.27-1.79.85-.71,1.85-1.12,2.89-1.07.95.05,1.84.46,2.56,1.24.4.43,1.1,1.5.5,2.02-.37.32-1.32.17-1.74.2-.76.03-1.53,0-2.29-.03-.5-.03-2.99.12-3.18-.54Z"/>
              <path class="cls-19" d="M138.72,228.83s0-.02,0-.03c-.09-.56.96-1.52,1.27-1.79.85-.71,1.85-1.12,2.89-1.07.95.05,1.84.46,2.56,1.24.4.43,1.1,1.5.5,2.02-.37.32-1.32.17-1.74.2-.76.03-1.53,0-2.29-.03-.5-.03-2.99.12-3.18-.54Z"/>
              <path class="cls-38" d="M139.99,227.01c-.17.15-.57.5-.88.89.51.01.96,0,1.15,0,.76.04,1.53.06,2.29.03.43-.02,1.37.12,1.75-.2.41-.35.21-.97-.09-1.46-.42-.2-.87-.31-1.33-.33-1.03-.05-2.03.35-2.89,1.07Z"/>
              <path class="cls-38" d="M142.92,227.87c0,.18-.11.32-.26.32s-.26-.15-.26-.32.12-.32.26-.32.26.14.26.32Z"/>
              <path class="cls-38" d="M143.6,227.98c0,.07-.05.13-.1.13s-.1-.06-.1-.13.04-.13.1-.13.1.06.1.13Z"/>
              <path class="cls-38" d="M144.08,227.07c0,.19-.12.34-.27.34s-.27-.15-.27-.34.12-.34.27-.34.27.15.27.34Z"/>
              <path class="cls-38" d="M144.94,227.83c0,.2-.13.37-.29.37s-.29-.17-.29-.37.13-.37.29-.37.29.16.29.37Z"/>
            </g>
            <g>
              <path class="cls-24" d="M157,226.04s0-.02,0-.03c-.09-.56.96-1.52,1.27-1.78.86-.71,1.86-1.12,2.89-1.07.94.05,1.84.46,2.56,1.24.4.44,1.1,1.5.5,2.02-.37.32-1.32.18-1.75.2-.76.03-1.53,0-2.29-.03-.5-.02-2.99.12-3.18-.54Z"/>
              <path class="cls-19" d="M157,226.04s0-.02,0-.03c-.09-.56.96-1.52,1.27-1.78.86-.71,1.86-1.12,2.89-1.07.94.05,1.84.46,2.56,1.24.4.44,1.1,1.5.5,2.02-.37.32-1.32.18-1.75.2-.76.03-1.53,0-2.29-.03-.5-.02-2.99.12-3.18-.54Z"/>
              <path class="cls-38" d="M158.26,224.23c-.17.14-.57.5-.87.89.51.01.96,0,1.15,0,.76.04,1.53.06,2.29.03.43-.02,1.37.12,1.75-.2.41-.35.21-.97-.09-1.46-.42-.2-.87-.31-1.33-.33-1.03-.05-2.03.36-2.89,1.07Z"/>
              <path class="cls-38" d="M161.19,225.08c0,.18-.12.32-.26.32s-.26-.14-.26-.32.12-.32.26-.32.26.15.26.32Z"/>
              <path class="cls-38" d="M161.88,225.19c0,.07-.05.13-.1.13s-.1-.06-.1-.13c0-.07.04-.13.1-.13s.1.06.1.13Z"/>
              <path class="cls-38" d="M162.36,224.28c0,.19-.12.34-.27.34s-.27-.15-.27-.34.12-.34.27-.34.27.15.27.34Z"/>
              <path class="cls-38" d="M163.21,225.04c0,.2-.13.37-.29.37s-.29-.16-.29-.37.13-.37.29-.37.29.17.29.37Z"/>
            </g>
            <g>
              <path class="cls-27" d="M121.98,227.34s-.01-.04-.02-.05c-.19-.9,1.94-2.46,2.58-2.88,1.74-1.15,3.77-1.81,5.86-1.73,1.92.08,3.74.75,5.2,2.01.82.7,2.22,2.43,1.02,3.25-.75.52-2.67.29-3.54.31-1.55.05-3.1.02-4.65-.04-1.02-.04-6.07.19-6.45-.87Z"/>
              <path class="cls-17" d="M121.98,227.34s-.01-.04-.02-.05c-.19-.9,1.94-2.46,2.58-2.88,1.74-1.15,3.77-1.81,5.86-1.73,1.92.08,3.74.75,5.2,2.01.82.7,2.22,2.43,1.02,3.25-.75.52-2.67.29-3.54.31-1.55.05-3.1.02-4.65-.04-1.02-.04-6.07.19-6.45-.87Z"/>
              <path class="cls-21" d="M124.54,224.4c-.36.24-1.2.84-1.83,1.49,1.11.03,2.13,0,2.53.01,1.55.06,3.1.09,4.65.04.87-.03,2.79.2,3.54-.31.83-.57.42-1.56-.18-2.36-.9-.35-1.86-.55-2.85-.6-2.1-.09-4.13.57-5.86,1.73Z"/>
              <path class="cls-17" d="M132.31,225.5c0,.29-.23.52-.52.52s-.52-.24-.52-.52.23-.52.52-.52.52.23.52.52Z"/>
              <path class="cls-17" d="M133.96,224.95c0,.2-.16.36-.36.36s-.35-.16-.35-.36.16-.36.35-.36.36.16.36.36Z"/>
              <path class="cls-17" d="M132.2,224.04c0,.15-.12.28-.27.28s-.27-.12-.27-.28.12-.27.27-.27.27.12.27.27Z"/>
              <path class="cls-17" d="M130.39,225.91c0,.3-.25.55-.55.55s-.55-.25-.55-.55.25-.55.55-.55.55.25.55.55Z"/>
            </g>
          </g>
        </g>
      </g>
    </g>
  </g>
</svg>